<svg width="228" height="51" viewBox="0 0 228 51" fill="none" xmlns="http://www.w3.org/2000/svg">
<path d="M0.68 0.599997H19.472C24.272 0.599997 28.352 2.232 31.712 5.496C35.024 8.76 36.68 12.768 36.68 17.52C36.68 22.272 35.024 26.28 31.712 29.544C28.352 32.808 24.272 34.44 19.472 34.44H10.616V51H0.68V0.599997ZM10.616 25.152H19.472C21.584 25.152 23.336 24.432 24.728 22.992C26.12 21.504 26.816 19.68 26.816 17.52C26.816 15.312 26.12 13.488 24.728 12.048C23.336 10.608 21.584 9.888 19.472 9.888H10.616V25.152ZM81.2159 51H70.4159L67.3919 41.928H47.3039L44.2799 51H33.5519L51.1919 0.599997H63.5039L81.2159 51ZM57.3839 12.048L50.4719 32.64H64.2959L57.3839 12.048ZM115.27 31.344V0.599997H125.206V51H117.646L96.0457 20.184V51H86.1097V0.599997H93.6697L115.27 31.344ZM134.555 0.599997H154.571C161.483 0.599997 167.243 3.024 171.851 7.872C176.507 12.672 178.835 18.648 178.835 25.8C178.835 32.952 176.507 38.928 171.851 43.728C167.243 48.576 161.483 51 154.571 51H134.555V0.599997ZM144.491 41.496H154.571C158.939 41.496 162.491 40.056 165.227 37.176C167.963 34.2 169.331 30.408 169.331 25.8C169.331 21.144 167.963 17.376 165.227 14.496C162.491 11.568 158.939 10.104 154.571 10.104H144.491V41.496ZM227.255 51H216.455L213.431 41.928H193.343L190.319 51H179.591L197.231 0.599997H209.543L227.255 51ZM203.423 12.048L196.511 32.64H210.335L203.423 12.048Z" fill="url(#paint0_linear_1_236)"/>
<defs>
<linearGradient id="paint0_linear_1_236" x1="157.592" y1="-13" x2="-16.3667" y2="184.736" gradientUnits="userSpaceOnUse">
<stop stop-color="#585858"/>
<stop offset="1"/>
</linearGradient>
</defs>
</svg>
